<?xml version="1.0" encoding="UTF-8"?>
<!DOCTYPE svg PUBLIC "-//W3C//DTD SVG 1.1//EN" "http://www.w3.org/Graphics/SVG/1.1/DTD/svg11.dtd">
<!-- Creator: CorelDRAW 2019 (64-Bit) -->
<svg xmlns="http://www.w3.org/2000/svg" xml:space="preserve" width="30.6037mm" height="30.6042mm" version="1.1" style="shape-rendering:geometricPrecision; text-rendering:geometricPrecision; image-rendering:optimizeQuality; fill-rule:evenodd; clip-rule:evenodd"
viewBox="0 0 189.54 189.55"
 xmlns:xlink="http://www.w3.org/1999/xlink"
 enable-background="new 0 0 144.083 144">
 <defs>
  <style type="text/css">
   <![CDATA[
    .fil0 {fill:white}
   ]]>
  </style>
 </defs>
 <g id="Слой_x0020_1">
  <metadata id="CorelCorpID_0Corel-Layer"/>
  <g id="_2709760025696">
   <path class="fil0" d="M94.77 0c-52.34,0 -94.77,42.43 -94.77,94.77 0,52.34 42.43,94.77 94.77,94.77 52.34,0 94.77,-42.44 94.77,-94.77 -0,-52.34 -42.43,-94.77 -94.77,-94.77zm32.37 60.62c0,0.9 -0.73,1.64 -1.64,1.64l-23.07 0 0 12.4 23.07 0c0.91,0 1.64,0.73 1.64,1.64l0 23.07c0,0.91 -0.73,1.64 -1.64,1.64l-21.43 0 0 50.62c0,0.91 -0.73,1.64 -1.64,1.64l-21.8 0c-0.91,0 -1.64,-0.73 -1.64,-1.64l0 -50.62 -14.94 0c-0.91,0 -1.64,-0.73 -1.64,-1.64l0 -23.07c0,-0.9 0.73,-1.64 1.64,-1.64l14.94 0 0 -9.35c0,-0.13 0.02,-0.26 0.05,-0.39 0.01,-13.32 2.86,-28.57 24.69,-28.64 0.05,-0 0.1,-0.01 0.15,-0.01l21.63 0c0.91,0 1.64,0.73 1.64,1.64l0 22.71 0 0z"/>
  </g>
 </g>
</svg>
