<?xml version="1.0" encoding="UTF-8"?>
<!DOCTYPE svg PUBLIC "-//W3C//DTD SVG 1.1//EN" "http://www.w3.org/Graphics/SVG/1.1/DTD/svg11.dtd">
<!-- Creator: CorelDRAW 2019 (64-Bit) -->
<svg xmlns="http://www.w3.org/2000/svg" xml:space="preserve" width="132.292mm" height="132.292mm" version="1.1" style="shape-rendering:geometricPrecision; text-rendering:geometricPrecision; image-rendering:optimizeQuality; fill-rule:evenodd; clip-rule:evenodd"
viewBox="0 0 1919.76 1919.77"
 xmlns:xlink="http://www.w3.org/1999/xlink">
 <defs>
  <style type="text/css">
   <![CDATA[
    .fil0 {fill:white}
   ]]>
  </style>
 </defs>
 <g id="Слой_x0020_1">
  <metadata id="CorelCorpID_0Corel-Layer"/>
  <path class="fil0" d="M1919.76 959.88c0,530.11 -429.77,959.88 -959.88,959.88 -530.11,0 -959.88,-429.77 -959.88,-959.88 0,-530.11 429.77,-959.88 959.88,-959.88 530.11,-0 959.88,429.77 959.88,959.88l0 0zm-567.18 -19.41l-0 0 -0.01 1.76 -0.02 3.52c-37.85,0.35 -75.44,0.49 -113.04,0.75l0 112.62 0 0 0 0 1.76 0.01 1.76 0.01 1.76 0.01 1.76 0.01 1.76 0.01 1.76 0.01 1.76 0.01 0 0 1.76 0.01 1.76 0.01 0 0 1.77 0.01 1.76 0.01 1.76 0.01 0 0 1.77 0.01 1.77 0.01 1.77 0.01 1.77 0.01 0 0 1.76 0.01 0 0 1.77 0.01 0 0 1.77 0.01 0 0 1.77 0.01 1.77 0.01 1.77 0.01 0 0 1.77 0.01 1.77 0.01 0 0 1.77 0.01 1.77 0.01 0 0 1.77 0.01 0 0 1.77 0.01 0 0 1.77 0.01 0 0 1.77 0.01 0 0 1.77 0.01 0 0 1.77 0.01 1.77 0.01 0 0 1.77 0.01 1.77 0.01 0 0 1.77 0.01 0 0 1.77 0.01 0 0 1.77 0.01 1.77 0.01 0 0 1.77 0.01 0 0 1.77 0.01 0 0 1.77 0.01 1.77 0.01 1.77 0.01 0 0 1.77 0.01 0 0 1.77 0.01 1.77 0.01 0 0 1.76 0.01 0 0 1.77 0.01 0 0 1.77 0.02 1.76 0.01 0 0 1.77 0.02 1.77 0.02 1.76 0.02 1.77 0.02 1.76 0.02 0 0 1.76 0.02 0 0 1.76 0.02 1.76 0.02 0 0 1.76 0.02 1.76 0.02 0 0 1.76 0.02 0 0 1.76 0.02 1.76 0.02 0 0 0.01 1.76 0 0 0.01 1.76 0 0 0.01 1.76 0 0 0.01 1.76 0 0 0.01 1.76 0 0 0.01 1.76 0 0 0.01 1.76 0 0 0.01 1.76 0.01 1.76 0 0 0.01 1.76 0 0 0.01 1.76 0 0 0.01 1.76 0 0 0.01 1.76 0.01 1.76 0.01 1.76 0.01 1.76 0.01 1.76 0.01 1.76 0.01 1.76 0 0 0.01 1.76 0.01 1.76 0.01 1.76 0 0.01 0.01 1.76 0.01 1.76 0.01 1.76 0.01 1.76 0.01 1.76 0.01 1.76 0.01 1.76 0.01 1.76 0.01 1.77 0.01 1.76 0.01 1.77 0.01 1.75 0 0.01 0.01 1.77 0.01 1.77 0.01 1.75 0 0.02 0.01 1.77 0.01 1.75 0 0.02 0.01 1.77 0.01 1.77 0.01 1.77 0.01 1.74 0 0.03 0.01 1.77 0.01 1.77 0.01 1.77 0.01 1.77 0.01 1.77 0.01 1.73 0 0.04 0.01 1.77 0.01 1.77 0.01 1.77 0.01 1.72 0 0.05 0.01 1.72 0 0.05 0.01 1.72 0 0.06 0.01 1.71 0 0.06 0.01 1.71 0 0.06 0.01 1.71 0 0.06 0.02 1.77 0.02 1.7 0 0.07 0.02 1.7 0 0.07 0.02 1.69 0 0.08 0.02 1.69 0 0.08 0.02 1.69 0 0.09c37.43,0 75.03,-0.25 112.62,0l0.01 -1.77 0.01 -1.77 0.01 -1.77 0.01 -1.77 0.01 -1.77 0.01 -1.77 0.01 -1.77 0 -0.06 0.01 -1.71 0.01 -1.77 0 -0.05 0.01 -1.72 0.01 -1.77 0.01 -1.77 0 -0.04 0.01 -1.72 0.01 -1.77 0.01 -1.77 0.01 -1.77 0.01 -1.77 0.01 -1.77 0.01 -1.77 0 -0.03 0.01 -1.74 0.01 -1.77 0.01 -1.77 0 -0.02 0.01 -1.74 0.01 -1.77 0 -0.02 0.01 -1.75 0.01 -1.77 0.01 -1.77 0.01 -1.77 0.01 -1.77 0.01 -1.77 0.01 -1.77 0 -0.01 0.01 -1.76 0.01 -1.77 0 -0.01 0.01 -1.76 0.01 -1.77 0.01 -1.77 0.01 -1.77 0 -0.01 0.01 -1.76 0.01 -1.77 0.01 -1.77 0.01 -1.77 0 -0 0.01 -1.76 0.01 -1.77 0.01 -1.77 0.01 -1.77 0 -0 0.01 -1.76 0.01 -1.77 0.01 -1.77 0.01 -1.77 0 -0 0.02 -1.77 0.01 -1.77 0 -0 0.02 -1.77 0.02 -1.77 0.02 -1.77 0.02 -1.77 0.02 -1.77 0.02 -1.77 0 -0 0.02 -1.77 0.02 -1.77 0 -0 0.02 -1.77 0.02 -1.77 0.02 -1.77 0 -0 0.02 -1.77 0.02 -1.77c37.6,-0.17 75.36,-0.42 112.96,-0.58l0 -112.62 -0 0 0 -0 -1.76 -0.01 -0 -0c-37.01,-0.18 -74.18,-0.41 -111.19,-0.74l-0.01 -1.76 -0.01 -1.76 -0.01 -1.76 -0.01 -1.76 -0.01 -1.76 -0.01 -1.76 -0.01 -1.76 -0 -0 -0.01 -1.76 -0.01 -1.76 -0.01 -1.76 -0.01 -1.76 -0.01 -1.76 -0.01 -1.76 -0.01 -1.76 -0.01 -1.76 -0.01 -1.76 -0.01 -1.77 -0.01 -1.76 -0.01 -1.77 -0.01 -1.76 -0.01 -1.77 -0.01 -1.76 -0.01 -1.77 -0.01 -1.77 -0.01 -1.77 -0.01 -1.77 -0.01 -1.76 -0 -0.01 -0.01 -1.76 -0.01 -1.77 -0.01 -1.77 -0.01 -1.77 -0 -0.01 -0.01 -1.75 -0.01 -1.77 -0 -0.01 -0.01 -1.75 -0.01 -1.77 -0.01 -1.77 -0 -0.02 -0.01 -1.75 -0.01 -1.77 -0.01 -1.77 -0.01 -1.76 -0.01 -1.77 -0.01 -1.77 -0.01 -1.77 -0.01 -1.76 -0 -0.03 -0.01 -1.73 -0.01 -1.76 -0.01 -1.77 -0.01 -1.76 -0 -0.04 -0.01 -1.72 -0.01 -1.77 -0.01 -1.76 -0.01 -1.76 -0.01 -1.76 -0.01 -1.76 -0 -0.06 -0.01 -1.71 -0.01 -1.76 -0 -0.06 -0.01 -1.7 -0.01 -1.76 -0.01 -1.76 -0.01 -1.76 -0.01 -1.76 -0.01 -1.76 -0.01 -1.76 -0.01 -1.76 -0 0 0 -0.09 -91.4 0 -21.06 0 0 0c-0.32,35.92 -0.71,71.9 -0.89,107.75zm-1018.39 62.35c-0.05,2.58 -0.08,5.16 -0.08,7.74 0,2.58 0.04,5.15 0.1,7.72l0 0c0.06,2.57 0.15,5.14 0.26,7.71 0.12,2.57 0.26,5.13 0.43,7.69l0 0c0.17,2.56 0.37,5.12 0.59,7.67 0.22,2.55 0.48,5.1 0.76,7.65l0 0c0.28,2.55 0.58,5.08 0.92,7.62l0 0c0.33,2.54 0.69,5.07 1.08,7.6l0 0c0.77,5.05 1.65,10.09 2.63,15.1l0 0c0.98,5.01 2.06,10 3.25,14.97l0 0c30.8,129.07 129.75,240.92 256.83,282.66 23.04,7.74 46.91,13.38 71.15,16.88l0.05 0.01c2.41,0.35 4.82,0.67 7.24,0.98l0.04 0.01c2.42,0.31 4.84,0.59 7.26,0.85 126.73,13.83 261.32,-29.85 341.02,-132.43 69.02,-85.28 86.64,-197.89 80.87,-304.52 -0.21,-4.02 -0.46,-8.04 -0.74,-12.05 -126.24,-1.09 -252.48,-0.75 -378.56,-0.51 -0.17,44.25 -0.01,88.33 0.24,132.57l0 0.02 0 0.01 0.01 2.11c75.53,2.09 151.14,1.17 226.75,2.67 -0.27,0.92 -0.54,1.84 -0.82,2.77l-0.09 0.29 -0 0.01c-19.59,64.24 -62.69,123.54 -127.58,146.73 -127.41,56.14 -289.91,-17.13 -329.93,-150.8 -3.78,-9.99 -6.79,-20.15 -9.06,-30.39 -26.61,-120.98 50.11,-254.82 170.63,-289.09 62.04,-21.81 125.54,-8.12 183.02,18.39l0.03 0.01c1.16,0.54 2.32,1.08 3.48,1.63l0.03 0.01c1.16,0.55 2.32,1.1 3.47,1.66l0.03 0.01c1.16,0.56 2.31,1.12 3.46,1.69l0.03 0.01c1.15,0.57 2.3,1.14 3.44,1.72l0.02 0.01c1.14,0.58 2.29,1.16 3.43,1.75l0.02 0.01c1.14,0.58 2.28,1.18 3.41,1.77l0.02 0.01c1.13,0.59 2.27,1.2 3.39,1.8l0.02 0.01c2.26,1.21 4.52,2.44 6.76,3.68l0.01 0.01 3.35 1.87 0.01 0.01c1.11,0.63 2.22,1.26 3.33,1.89l0.01 0.01c4.44,2.54 8.83,5.13 13.16,7.77l0 -0 1.64 -1.54 0 -0 1.64 -1.54 0 -0 1.63 -1.54 0 -0 1.63 -1.55 0 -0 1.63 -1.55 0 -0 1.62 -1.55 0 -0 1.62 -1.56 0 -0 1.62 -1.56 0 -0 1.62 -1.56 0 -0 1.61 -1.57 0 -0 1.61 -1.57 0 -0 1.61 -1.57 0 -0 1.6 -1.58 0 -0 1.6 -1.58 0 -0 1.6 -1.58 0 -0 1.6 -1.58 0 -0 1.59 -1.59 0 -0 1.59 -1.59 0 -0 1.59 -1.59 0 -0 1.58 -1.59 0 -0 1.58 -1.6 0 -0 1.58 -1.6 0 -0 1.58 -1.6 0 -0 1.58 -1.6 0 -0 1.57 -1.61 0 -0 1.57 -1.61 0 -0 1.57 -1.61 0 -0 1.57 -1.61 0 -0 1.56 -1.62 0 -0 1.56 -1.62 0 -0 1.56 -1.62 0 -0 1.56 -1.62 0 -0 1.56 -1.62 0 -0 1.56 -1.63 0 -0 1.55 -1.63 0 -0 1.55 -1.63 0 -0 1.55 -1.63 0 -0 1.55 -1.63 0 -0 1.55 -1.63 0 -0 1.54 -1.64 0 -0 1.54 -1.64 0 -0 1.54 -1.64 0 -0 1.54 -1.64 0 -0 1.54 -1.64 0 -0 1.54 -1.64 0 -0 1.53 -1.64 0 -0 1.53 -1.65 0 -0 1.53 -1.65 0 -0 1.53 -1.65 0 -0 1.53 -1.65 0 -0 1.53 -1.65 0 -0 1.53 -1.65 0 -0 1.53 -1.65 0 -0 1.52 -1.65 0 -0 1.52 -1.65 0 -0 1.52 -1.65 0 -0 1.52 -1.66 0 -0 1.52 -1.66 0 -0 1.52 -1.66 0 -0 1.52 -1.66 0 -0 1.52 -1.66 0 -0 1.51 -1.66 0 -0 1.51 -1.66 0 -0 1.51 -1.66 0 -0c-78.87,-65.92 -180.13,-106.36 -284.23,-97.5 -38.3,0.46 -75.71,7.46 -111.15,19.88l-0 0c-11.81,4.14 -23.41,8.88 -34.75,14.18l-0 0c-2.84,1.32 -5.65,2.68 -8.45,4.08l-0 0c-2.8,1.39 -5.59,2.82 -8.35,4.29l-0 0c-2.77,1.46 -5.52,2.96 -8.25,4.49l-0 0c-10.93,6.12 -21.58,12.77 -31.9,19.9l-0 0c-2.58,1.78 -5.14,3.6 -7.68,5.44l-0 0c-2.54,1.84 -5.06,3.72 -7.55,5.62l-0 0c-2.5,1.9 -4.97,3.83 -7.42,5.79l-0 0c-4.9,3.92 -9.72,7.96 -14.44,12.1l0 0c-2.36,2.07 -4.7,4.17 -7.01,6.3l-0 0c-2.31,2.13 -4.6,4.28 -6.87,6.46l-0 0c-2.27,2.18 -4.5,4.38 -6.72,6.61l-0 0c-2.22,2.23 -4.4,4.48 -6.57,6.76l0 0c-2.16,2.28 -4.3,4.58 -6.41,6.91l-0 0c-2.11,2.33 -4.2,4.68 -6.25,7.05l-0 0c-2.06,2.37 -4.09,4.77 -6.09,7.19l0 0c-2,2.42 -3.98,4.86 -5.93,7.33l-0 0c-1.95,2.47 -3.86,4.95 -5.76,7.46l-0 0c-1.89,2.51 -3.75,5.04 -5.58,7.59l0 0c-1.83,2.55 -3.63,5.12 -5.41,7.72l0 0c-1.77,2.59 -3.51,5.2 -5.22,7.84l0 0c-1.71,2.63 -3.39,5.28 -5.04,7.95l0 0c-1.65,2.67 -3.27,5.36 -4.85,8.07 -1.58,2.71 -3.14,5.43 -4.66,8.17l0 0c-1.52,2.74 -3.01,5.5 -4.46,8.28l0 0c-1.46,2.78 -2.88,5.57 -4.26,8.38l0 0c-1.39,2.81 -2.74,5.63 -4.06,8.47l0 0c-1.32,2.84 -2.6,5.7 -3.85,8.57l0 0c-1.25,2.87 -2.47,5.76 -3.64,8.66l0 0c-1.18,2.9 -2.32,5.82 -3.43,8.74l0 0c-1.11,2.93 -2.18,5.87 -3.21,8.82l0 0c-1.03,2.96 -2.03,5.92 -2.99,8.9l0 0c-0.96,2.98 -1.88,5.97 -2.76,8.98l0 0c-0.88,3 -1.73,6.02 -2.53,9.05l0 0c-0.81,3.03 -1.57,6.06 -2.3,9.11l0 0c-0.73,3.05 -1.42,6.11 -2.07,9.17l0 0c-0.65,3.07 -1.26,6.14 -1.83,9.23l0 0c-0.57,3.09 -1.1,6.18 -1.58,9.29l0 0c-0.49,3.1 -0.93,6.22 -1.34,9.34l0 0c-0.4,3.12 -0.76,6.25 -1.08,9.38l0 0c-0.32,3.13 -0.59,6.27 -0.83,9.42l0 0c-0.23,3.15 -0.42,6.3 -0.57,9.46 -0.15,3.16 -0.25,6.33 -0.31,9.5 -0.06,3.17 -0.07,6.35 -0.04,9.53 0.03,3.18 0.11,6.37 0.23,9.56l0 0zm56.44 -206.11c-1.65,2.67 -3.27,5.36 -4.85,8.07l4.85 -8.07z"/>
 </g>
</svg>
