<?xml version="1.0" encoding="UTF-8"?>
<!DOCTYPE svg PUBLIC "-//W3C//DTD SVG 1.1//EN" "http://www.w3.org/Graphics/SVG/1.1/DTD/svg11.dtd">
<!-- Creator: CorelDRAW 2019 (64-Bit) -->
<svg xmlns="http://www.w3.org/2000/svg" xml:space="preserve" width="30.604mm" height="30.6038mm" version="1.1" style="shape-rendering:geometricPrecision; text-rendering:geometricPrecision; image-rendering:optimizeQuality; fill-rule:evenodd; clip-rule:evenodd"
viewBox="0 0 922.75 922.74"
 xmlns:xlink="http://www.w3.org/1999/xlink">
 <defs>
  <style type="text/css">
   <![CDATA[
    .fil0 {fill:white}
   ]]>
  </style>
 </defs>
 <g id="Слой_x0020_1">
  <metadata id="CorelCorpID_0Corel-Layer"/>
  <path class="fil0" d="M461.36 0c-254.79,0 -461.36,206.57 -461.36,461.36 0,254.8 206.56,461.38 461.36,461.38 254.81,0 461.39,-206.58 461.39,-461.38 -0.01,-254.79 -206.58,-461.36 -461.39,-461.36zm-191.45 208.09c31.38,0 56.84,23.21 56.84,51.85 0,28.64 -25.46,51.85 -56.84,51.85 -31.4,0 -56.84,-23.21 -56.84,-51.85 0,-28.64 25.44,-51.85 56.84,-51.85zm57.27 443.51l-112.31 0 0 -293.06 112.31 0 0 293.06zm381.63 0l-112.85 0 0 -161.15c0,-18.4 -3.41,-31.41 -10.22,-39.06 -6.81,-7.63 -16.38,-11.45 -28.69,-11.45 -13.62,0 -24.67,5.15 -33.12,15.46 -8.46,10.31 -12.68,28.79 -12.68,55.47l0 140.73 -112.32 0 0 -293.06 104.58 0 0 47.73c15.63,-19.49 31.46,-33.43 47.46,-41.8 16,-8.37 35.49,-12.55 58.49,-12.55 31.1,0 55.42,9.24 72.99,27.73 17.56,18.48 26.35,47.04 26.35,85.68l0 186.27 0.01 0z"/>
 </g>
</svg>
