<?xml version="1.0" encoding="UTF-8"?>
<!DOCTYPE svg PUBLIC "-//W3C//DTD SVG 1.1//EN" "http://www.w3.org/Graphics/SVG/1.1/DTD/svg11.dtd">
<!-- Creator: CorelDRAW 2019 (64-Bit) -->
<svg xmlns="http://www.w3.org/2000/svg" xml:space="preserve" width="13.0302mm" height="13.0302mm" version="1.1" style="shape-rendering:geometricPrecision; text-rendering:geometricPrecision; image-rendering:optimizeQuality; fill-rule:evenodd; clip-rule:evenodd"
viewBox="0 0 35.88 35.88"
 xmlns:xlink="http://www.w3.org/1999/xlink">
 <defs>
  <style type="text/css">
   <![CDATA[
    .fil0 {fill:white}
   ]]>
  </style>
 </defs>
 <g id="Слой_x0020_1">
  <metadata id="CorelCorpID_0Corel-Layer"/>
  <g id="_2709758049104">
   <g>
    <path id="svg_1" class="fil0" d="M17.94 0c-9.91,0 -17.94,8.03 -17.94,17.94 0,9.91 8.03,17.94 17.94,17.94 9.91,0 17.94,-8.03 17.94,-17.94 0,-9.91 -8.03,-17.94 -17.94,-17.94zm9.04 14.32c0.01,0.19 0.01,0.39 0.01,0.59 0,5.97 -4.55,12.86 -12.86,12.86 -2.55,0 -4.93,-0.75 -6.93,-2.03 0.35,0.04 0.71,0.06 1.08,0.06 2.12,0 4.07,-0.72 5.61,-1.93 -1.98,-0.04 -3.65,-1.34 -4.22,-3.14 0.28,0.05 0.56,0.08 0.85,0.08 0.41,0 0.81,-0.05 1.19,-0.16 -2.07,-0.42 -3.63,-2.24 -3.63,-4.43 0,-0.02 0,-0.04 0,-0.06 0.61,0.34 1.31,0.54 2.05,0.57 -1.21,-0.81 -2.01,-2.19 -2.01,-3.76 0,-0.83 0.22,-1.61 0.61,-2.27 2.23,2.73 5.56,4.53 9.32,4.72 -0.08,-0.33 -0.12,-0.68 -0.12,-1.03 0,-2.5 2.02,-4.52 4.52,-4.52 1.3,0 2.47,0.55 3.3,1.43 1.03,-0.2 2,-0.58 2.87,-1.1 -0.34,1.06 -1.05,1.94 -1.99,2.5 0.92,-0.11 1.79,-0.35 2.6,-0.71 -0.6,0.91 -1.37,1.7 -2.26,2.34l0 -0z"/>
   </g>
  </g>
 </g>
</svg>
